<?xml version="1.0" encoding="UTF-8"?>
<svg viewBox="0 0 162 205" xmlns="http://www.w3.org/2000/svg">
 <defs>
  <linearGradient id="b" x1="141.22" x2="134.42" y1="145.39" y2="162.64" gradientUnits="userSpaceOnUse">
   <stop stop-color="#f00" offset="0"/>
   <stop stop-color="#800000" offset="1"/>
  </linearGradient>
  <linearGradient id="a" x1="100.19" x2="105.52" y1="47.622" y2="41.372" gradientUnits="userSpaceOnUse">
   <stop stop-color="#73aac6" offset="0"/>
   <stop stop-color="#73aac6" stop-opacity="0" offset="1"/>
  </linearGradient>
 </defs>
 <path d="m118.97 150.46s7.9816-5.8812 12.602-4.6209 12.182 13.443 12.182 13.443 4.4109 6.0912 0.63012 8.1916-5.041 3.1506-10.292-2.9406-5.041-6.0912-5.041-6.0912" fill="url(#b)" stroke="#000"/>
 <path d="m80.743 30.944c-5.6711-0.21004-6.7213 4.2008-6.7213 7.3514s6.5113 9.6619 10.292 13.233 9.0318 4.2008 11.552 4.4109-0.84017-0.63012 3.5707-4.4109 9.0318-6.5113 12.392-4.8309 5.1504 6.3759 3.2623 8.9343c-1.1174 1.5141-5.7327 1.4579-4.6825 2.7181s3.5206 8.3015 3.5206 8.3015c6.6563 18.833 1.179 6.5238-8.8217 3.5707-3.9908-1.0502-5.4611 1.0502-5.8812 5.4611s2.3104 19.744 2.3104 19.744l10.922 54.191s5.041 3.7807 7.1414 7.5615 6.3012 3.3606 6.3012 3.3606l4.6209-1.0502 3.7807 15.333c-3.1506 5.6711-32.556 12.602-65.113 12.182s-36.757-9.6619-36.757-9.6619-1.2602-1.6803-0.63012-7.5615 11.972-55.871 12.812-63.012 5.6711-42.848 4.8309-46.629-0.84016-4.2008-0.84016-4.2008l-15.543-2.1004s-2.3104 7.5615-4.8309 7.5615-6.7213-1.2602-6.7213-6.5113 2.3104-14.073 4.8309-16.803 3.9908-3.5707 6.0912-3.5707 5.041 3.5707 5.6711 5.8812-0.42008 4.6209-0.42008 4.6209l10.922 1.4703s1.6803-8.1916 5.8812-12.182 8.4016-8.4016 16.383-7.3514 9.6916 2.4303 9.6916 2.4303" fill="#869b3d" stroke="#000"/>
 <path d="m24.039 43.196s-2.6864 11.382 0.0707 12.089 7.6866-2.8332 7.6866-2.8332l10.941 1.6682 6.1151 1.3034-16.33-2.1886s-2.1208 8.342-4.9486 7.635c-4.2256-1.0564-5.5142-2.6157-5.5849-6.7867s2.0501-10.887 2.0501-10.887z" fill="#758a2b"/>
 <path d="m69.47 41.448s-9.7777-5.0954-0.27543-11.293" fill="none" stroke="#758a2b"/>
 <path d="m69.19 30.104s-5.4611 1.2602-5.041 5.8812 3.5707 4.8309 5.4611 5.4611" fill="none" stroke="#000"/>
 <path d="m105.32 46.907s-11.132-13.443-17.433-14.913-7.5615-1.0502-7.5615-1.0502" fill="#fff" stroke="#000"/>
 <path d="m100.07 50.898s-7.1414-3.1506-8.4016-6.3012 3.1506-2.7305 3.1506-2.7305 2.9406 0.63012 5.4611 2.3104 3.9908 3.7807 3.9908 3.7807" fill="url(#a)" stroke="#000"/>
 <path d="m107.65 71.455s7.1164 19.98 6.9063 25.652l5.4611-0.84017c4e-3 0.0115-3.0495-17.738-4.7459-19.851-0.92961-1.1583-7.6215-4.96-7.6215-4.96z" fill="none" stroke="#000"/>
 <path d="m112.88 147.31s8.6117 2.7305 10.082 4.831 2.3104 7.5615 2.3104 7.5615" fill="#fff" stroke="#000"/>
 <path d="m123.59 152.77s4.6209 0.42008 5.8811 3.7807-2.3104 3.5707-2.3104 3.5707" fill="#fff" stroke="#000"/>
 <path d="m25.922 52.158s-0.21004-6.9314 2.1004-8.4016 2.9406 4.2008 2.9406 4.2008l-2.1004-0.21004" fill="#758a2b" stroke="#000"/>
 <path d="m38.941 181.65s-3.3476-0.90989-5.1342-3.3485-2.4255-3.9271-1.6904-7.2878 3.5864-17.811 6.3698-30.557 5.6369-25.851 6.3324-31.305c1.2798-10.036 5.678-44.811 5.678-44.811 1.0291 20.701-3.2433 55.861-8.2939 93.143z" fill="#758a2b"/>
 <path d="m49.072 46.937 2.4437-2.9091s3.7237-13.731 12.626-15.477c0 0-5.0619 0.81455-10.182 7.1564s-4.8873 11.229-4.8873 11.229z" fill="#758a2b"/>
</svg>
