<?xml version="1.0" encoding="UTF-8"?>
<svg width="4e3" height="2250" version="1.1" viewBox="0 0 1058.3333 595.31252" xmlns="http://www.w3.org/2000/svg">
 <g transform="translate(0 298.31)">
  <rect x="-1.9398" y="-302.04" width="1064.3" height="603.47" fill="#906f44"/>
  <g transform="matrix(.60614 0 0 .68412 149.77 -63.84)">
   <g transform="translate(23.085 143.64)">
    <ellipse cx="530.07" cy="-14.014" rx="23.963" ry="18.807" fill="#906f44" stroke="#fff" stroke-linecap="round" stroke-width="17.154"/>
    <path d="m686.96-44.175a77.792 77.792 0 0 1 -39.052 67.46 77.792 77.792 0 0 1 -77.948 -0.27123 77.792 77.792 0 0 1 -38.582 -67.73" fill="#fff"/>
   </g>
   <g fill="none" stroke="#fff" stroke-width="8">
    <path d="m615-0.66839c-1.8484-0.14444-3.7338 0.21787-5.397 1.0371-1.6632 0.81922-3.0996 2.0931-4.1116 3.6465-1.0121 1.5534-1.597 3.382-1.6745 5.2344-0.0774 1.8524 0.35288 3.7235 1.2318 5.3559 0.9977 1.8531 2.5406 3.3652 4.2387 4.6086s3.5605 2.2402 5.3937 3.2742c1.8331 1.0339 3.6554 2.1176 5.2356 3.5077s2.9192 3.1141 3.5713 5.1152c0.52238 1.6031 0.58602 3.342 0.26497 4.9972s-1.0196 3.2273-1.963 4.6247c-1.8867 2.7949-4.6996 4.8495-7.6814 6.4242s-6.1677 2.7196-9.2572 4.071c-3.0894 1.3515-6.1308 2.9426-8.5832 5.2571-2.2665 2.1391-3.9723 4.8672-4.9031 7.8415-0.93076 2.9743-1.0844 6.1881-0.4416 9.2376s2.0806 5.9279 4.1327 8.2734 4.714 4.153 7.651 5.1952"/>
    <path d="m641.3-0.21495c-1.8484-0.14444-3.7338 0.21787-5.397 1.0371-1.6632 0.81922-3.0996 2.0931-4.1116 3.6465-1.0121 1.5534-1.597 3.382-1.6745 5.2344-0.0774 1.8524 0.35288 3.7235 1.2318 5.3559 0.9977 1.8531 2.5406 3.3652 4.2387 4.6086s3.5605 2.2402 5.3937 3.2742c1.8331 1.0339 3.6554 2.1176 5.2356 3.5077s2.9192 3.1141 3.5713 5.1152c0.52238 1.6031 0.58602 3.342 0.26497 4.9972s-1.0196 3.2273-1.963 4.6247c-1.8867 2.7949-4.6996 4.8495-7.6814 6.4242s-6.1677 2.7196-9.2572 4.071c-3.0894 1.3515-6.1308 2.9426-8.5832 5.2571-2.2665 2.1391-3.9723 4.8672-4.9031 7.8415-0.93076 2.9743-1.0844 6.1881-0.4416 9.2376s2.0806 5.9279 4.1327 8.2734 4.714 4.153 7.651 5.1952"/>
    <path d="m665.33 0.2385c-1.8484-0.14444-3.7338 0.21787-5.397 1.0371-1.6632 0.81922-3.0996 2.0931-4.1116 3.6465-1.0121 1.5534-1.597 3.382-1.6745 5.2344-0.0774 1.8524 0.35288 3.7234 1.2318 5.3559 0.9977 1.8531 2.5406 3.3652 4.2387 4.6086s3.5605 2.2402 5.3937 3.2742c1.8331 1.0339 3.6554 2.1176 5.2356 3.5077s2.9192 3.1141 3.5713 5.1152c0.52238 1.6031 0.58602 3.342 0.26497 4.9972s-1.0196 3.2273-1.963 4.6247c-1.8867 2.7949-4.6996 4.8495-7.6814 6.4242s-6.1677 2.7196-9.2572 4.071c-3.0894 1.3515-6.1308 2.9426-8.5832 5.2571-2.2665 2.1391-3.9723 4.8672-4.9031 7.8415-0.93076 2.9743-1.0844 6.1881-0.4416 9.2376s2.0806 5.9279 4.1327 8.2734 4.714 4.153 7.651 5.1952"/>
   </g>
  </g>
  <rect x="-1.9398" y="59.03" width="1064.5" height="242.4" fill="#685031"/>
 </g>
</svg>
